<mxfile modified="2021-11-13T14:02:45.521Z" host="app.diagrams.net" agent="5.0 (Macintosh; Intel Mac OS X 10_15_7) AppleWebKit/605.1.15 (KHTML, like Gecko) Version/14.1 Safari/605.1.15" etag="ixEfPlomJi6v-B5zz8K9" version="15.7.3" type="github">
  <diagram id="f106602c-feb2-e66a-4537-3a34d633f6aa" name="Page-1">
    <mxGraphModel dx="1387" dy="1112" grid="1" gridSize="10" guides="1" tooltips="1" connect="1" arrows="1" fold="1" page="1" pageScale="1" pageWidth="1169" pageHeight="827" background="none" math="0" shadow="0">
      <root>
        <mxCell id="0" />
        <mxCell id="1" parent="0" />
        <mxCell id="2" value="Architecture: Media &amp;gt; Hybrid Rendering" style="fillColor=#4DA1F5;strokeColor=none;shadow=1;gradientColor=none;fontSize=14;align=left;spacingLeft=50;fontColor=#ffffff;html=1;" parent="1" vertex="1">
          <mxGeometry x="34.5" y="40" width="1100" height="40" as="geometry" />
        </mxCell>
        <mxCell id="392" value="Local-Compute" style="strokeColor=#dddddd;fillColor=#ffffff;shadow=1;strokeWidth=1;rounded=1;absoluteArcSize=1;arcSize=2;labelPosition=center;verticalLabelPosition=middle;align=center;verticalAlign=bottom;spacingLeft=0;fontColor=#999999;fontSize=12;whiteSpace=wrap;spacingBottom=2;html=1;" parent="1" vertex="1">
          <mxGeometry x="110" y="100" width="70" height="100" as="geometry" />
        </mxCell>
        <mxCell id="393" value="" style="dashed=0;html=1;fillColor=#757575;strokeColor=none;shape=mxgraph.gcp2.compute_engine_icon;part=1;" parent="392" vertex="1">
          <mxGeometry x="0.5" width="50" height="44.5" relative="1" as="geometry">
            <mxPoint x="-25" y="12.75" as="offset" />
          </mxGeometry>
        </mxCell>
        <mxCell id="396" value="" style="strokeColor=#dddddd;fillColor=#ffffff;shadow=1;strokeWidth=1;rounded=1;absoluteArcSize=1;arcSize=2;fontSize=17;fontColor=#000000;align=right;html=1;" parent="1" vertex="1">
          <mxGeometry x="260" y="120" width="150" height="60" as="geometry" />
        </mxCell>
        <mxCell id="397" value="Avere Physical&#xa;Appliance" style="dashed=0;html=1;fillColor=#5184F3;strokeColor=none;shape=mxgraph.gcp2.avere;part=1;labelPosition=right;verticalLabelPosition=middle;align=left;verticalAlign=middle;spacingLeft=5;fontColor=#999999;fontSize=12;" parent="396" vertex="1">
          <mxGeometry width="45" height="14.850000000000001" relative="1" as="geometry">
            <mxPoint x="5" y="22.075" as="offset" />
          </mxGeometry>
        </mxCell>
        <mxCell id="412" style="edgeStyle=elbowEdgeStyle;rounded=0;elbow=vertical;html=1;startArrow=blockThin;startFill=1;endArrow=blockThin;endFill=1;jettySize=auto;orthogonalLoop=1;strokeWidth=2;fontSize=10;fontColor=#999999;dashed=0;strokeColor=#4284F3;labelBackgroundColor=none;endSize=4;startSize=4;" parent="1" source="400" target="402" edge="1">
          <mxGeometry relative="1" as="geometry" />
        </mxCell>
        <mxCell id="400" value="" style="strokeColor=#dddddd;fillColor=#ffffff;shadow=1;strokeWidth=1;rounded=1;absoluteArcSize=1;arcSize=2;fontSize=17;fontColor=#000000;align=right;html=1;" parent="1" vertex="1">
          <mxGeometry x="650" y="180" width="100" height="44" as="geometry" />
        </mxCell>
        <mxCell id="401" value="Gateway" style="dashed=0;html=1;fillColor=#757575;strokeColor=none;shape=mxgraph.gcp2.gateway;part=1;labelPosition=right;verticalLabelPosition=middle;align=left;verticalAlign=middle;spacingLeft=5;fontColor=#000000;fontSize=12;" parent="400" vertex="1">
          <mxGeometry y="0.5" width="32" height="32" relative="1" as="geometry">
            <mxPoint x="5" y="-16" as="offset" />
          </mxGeometry>
        </mxCell>
        <mxCell id="402" value="" style="strokeColor=#dddddd;fillColor=#ffffff;shadow=1;strokeWidth=1;rounded=1;absoluteArcSize=1;arcSize=2;fontSize=17;fontColor=#000000;align=right;html=1;" parent="1" vertex="1">
          <mxGeometry x="780" y="180" width="150" height="60" as="geometry" />
        </mxCell>
        <mxCell id="403" value="Avere Virtual&lt;br&gt;Elite Filter&lt;br&gt;" style="dashed=0;html=1;fillColor=#5184F3;strokeColor=none;shape=mxgraph.gcp2.avere;part=1;labelPosition=right;verticalLabelPosition=middle;align=left;verticalAlign=middle;spacingLeft=5;fontColor=#999999;fontSize=12;" parent="402" vertex="1">
          <mxGeometry width="45" height="14.850000000000001" relative="1" as="geometry">
            <mxPoint x="5" y="22.075" as="offset" />
          </mxGeometry>
        </mxCell>
        <mxCell id="PhpXdE0GWQOgbOGKaO0m-458" style="edgeStyle=orthogonalEdgeStyle;rounded=0;orthogonalLoop=1;jettySize=auto;html=1;fontSize=14;endArrow=blockThin;endFill=1;startSize=4;endSize=4;strokeColor=#4284F3;strokeWidth=2;" edge="1" parent="1" source="PhpXdE0GWQOgbOGKaO0m-414">
          <mxGeometry relative="1" as="geometry">
            <mxPoint x="570" y="670" as="targetPoint" />
          </mxGeometry>
        </mxCell>
        <mxCell id="PhpXdE0GWQOgbOGKaO0m-414" value="&lt;font style=&quot;font-size: 14px&quot;&gt;端外&lt;/font&gt;" style="sketch=0;points=[[0,0,0],[0.25,0,0],[0.5,0,0],[0.75,0,0],[1,0,0],[1,0.25,0],[1,0.5,0],[1,0.75,0],[1,1,0],[0.75,1,0],[0.5,1,0],[0.25,1,0],[0,1,0],[0,0.75,0],[0,0.5,0],[0,0.25,0]];rounded=1;absoluteArcSize=1;arcSize=2;html=1;strokeColor=none;gradientColor=none;shadow=0;dashed=0;fontSize=12;fontColor=#9E9E9E;align=left;verticalAlign=top;spacing=10;spacingTop=-4;fillColor=#FFF8E1;" vertex="1" parent="1">
          <mxGeometry x="80" y="700" width="450" height="90" as="geometry" />
        </mxCell>
        <mxCell id="PhpXdE0GWQOgbOGKaO0m-419" value="基础设备" style="strokeColor=#dddddd;shadow=1;strokeWidth=1;rounded=1;absoluteArcSize=1;arcSize=2;labelPosition=center;verticalLabelPosition=middle;align=center;verticalAlign=bottom;spacingLeft=0;fontColor=#999999;fontSize=12;whiteSpace=wrap;spacingBottom=2;" vertex="1" parent="1">
          <mxGeometry x="160" y="710" width="60" height="70" as="geometry" />
        </mxCell>
        <mxCell id="PhpXdE0GWQOgbOGKaO0m-420" value="" style="sketch=0;dashed=0;connectable=0;html=1;fillColor=#757575;strokeColor=none;shape=mxgraph.gcp2.phone;part=1;" vertex="1" parent="PhpXdE0GWQOgbOGKaO0m-419">
          <mxGeometry x="0.5" width="29.5" height="40" relative="1" as="geometry">
            <mxPoint x="-16" y="10" as="offset" />
          </mxGeometry>
        </mxCell>
        <mxCell id="PhpXdE0GWQOgbOGKaO0m-421" value="App状态" style="strokeColor=#dddddd;shadow=1;strokeWidth=1;rounded=1;absoluteArcSize=1;arcSize=2;labelPosition=center;verticalLabelPosition=middle;align=center;verticalAlign=bottom;spacingLeft=0;fontColor=#999999;fontSize=12;whiteSpace=wrap;spacingBottom=2;" vertex="1" parent="1">
          <mxGeometry x="245" y="710" width="60" height="70" as="geometry" />
        </mxCell>
        <mxCell id="PhpXdE0GWQOgbOGKaO0m-422" value="" style="sketch=0;dashed=0;connectable=0;html=1;fillColor=#757575;strokeColor=none;shape=mxgraph.gcp2.phone;part=1;" vertex="1" parent="PhpXdE0GWQOgbOGKaO0m-421">
          <mxGeometry x="0.5" width="29.5" height="40" relative="1" as="geometry">
            <mxPoint x="-16" y="10" as="offset" />
          </mxGeometry>
        </mxCell>
        <mxCell id="PhpXdE0GWQOgbOGKaO0m-423" value="竞品信息" style="strokeColor=#dddddd;shadow=1;strokeWidth=1;rounded=1;absoluteArcSize=1;arcSize=2;labelPosition=center;verticalLabelPosition=middle;align=center;verticalAlign=bottom;spacingLeft=0;fontColor=#999999;fontSize=12;whiteSpace=wrap;spacingBottom=2;" vertex="1" parent="1">
          <mxGeometry x="335" y="710" width="60" height="70" as="geometry" />
        </mxCell>
        <mxCell id="PhpXdE0GWQOgbOGKaO0m-424" value="" style="sketch=0;dashed=0;connectable=0;html=1;fillColor=#757575;strokeColor=none;shape=mxgraph.gcp2.report;part=1;" vertex="1" parent="PhpXdE0GWQOgbOGKaO0m-423">
          <mxGeometry x="0.5" width="30" height="40" relative="1" as="geometry">
            <mxPoint x="-15.5" y="10" as="offset" />
          </mxGeometry>
        </mxCell>
        <mxCell id="PhpXdE0GWQOgbOGKaO0m-425" value="友商信息" style="strokeColor=#dddddd;shadow=1;strokeWidth=1;rounded=1;absoluteArcSize=1;arcSize=2;labelPosition=center;verticalLabelPosition=middle;align=center;verticalAlign=bottom;spacingLeft=0;fontColor=#999999;fontSize=12;whiteSpace=wrap;spacingBottom=2;" vertex="1" parent="1">
          <mxGeometry x="420" y="710" width="60" height="70" as="geometry" />
        </mxCell>
        <mxCell id="PhpXdE0GWQOgbOGKaO0m-426" value="" style="sketch=0;dashed=0;connectable=0;html=1;fillColor=#757575;strokeColor=none;shape=mxgraph.gcp2.report;part=1;" vertex="1" parent="PhpXdE0GWQOgbOGKaO0m-425">
          <mxGeometry x="0.5" width="30" height="40" relative="1" as="geometry">
            <mxPoint x="-15.5" y="10" as="offset" />
          </mxGeometry>
        </mxCell>
        <mxCell id="PhpXdE0GWQOgbOGKaO0m-459" style="edgeStyle=orthogonalEdgeStyle;rounded=0;orthogonalLoop=1;jettySize=auto;html=1;fontSize=14;endArrow=blockThin;endFill=1;startSize=4;endSize=4;strokeColor=#4284F3;strokeWidth=2;" edge="1" parent="1" source="PhpXdE0GWQOgbOGKaO0m-427">
          <mxGeometry relative="1" as="geometry">
            <mxPoint x="570" y="670" as="targetPoint" />
          </mxGeometry>
        </mxCell>
        <mxCell id="PhpXdE0GWQOgbOGKaO0m-427" value="&lt;font style=&quot;font-size: 14px&quot;&gt;端内&lt;/font&gt;" style="sketch=0;points=[[0,0,0],[0.25,0,0],[0.5,0,0],[0.75,0,0],[1,0,0],[1,0.25,0],[1,0.5,0],[1,0.75,0],[1,1,0],[0.75,1,0],[0.5,1,0],[0.25,1,0],[0,1,0],[0,0.75,0],[0,0.5,0],[0,0.25,0]];rounded=1;absoluteArcSize=1;arcSize=2;html=1;strokeColor=none;gradientColor=none;shadow=0;dashed=0;fontSize=12;fontColor=#9E9E9E;align=left;verticalAlign=top;spacing=10;spacingTop=-4;fillColor=#FFF8E1;" vertex="1" parent="1">
          <mxGeometry x="610" y="700" width="450" height="90" as="geometry" />
        </mxCell>
        <mxCell id="PhpXdE0GWQOgbOGKaO0m-437" value="信息流" style="sketch=0;html=1;fillColor=#5184F3;strokeColor=none;verticalAlign=top;labelPosition=center;verticalLabelPosition=bottom;align=center;spacingTop=-6;fontSize=11;fontStyle=1;fontColor=#999999;shape=mxgraph.gcp2.hexIcon;prIcon=cloud_bigtable" vertex="1" parent="1">
          <mxGeometry x="667" y="710" width="66" height="59" as="geometry" />
        </mxCell>
        <mxCell id="PhpXdE0GWQOgbOGKaO0m-438" value="小说" style="sketch=0;html=1;fillColor=#5184F3;strokeColor=none;verticalAlign=top;labelPosition=center;verticalLabelPosition=bottom;align=center;spacingTop=-6;fontSize=11;fontStyle=1;fontColor=#999999;shape=mxgraph.gcp2.hexIcon;prIcon=cloud_bigtable" vertex="1" parent="1">
          <mxGeometry x="750" y="710" width="66" height="59" as="geometry" />
        </mxCell>
        <mxCell id="PhpXdE0GWQOgbOGKaO0m-440" value="搜索" style="sketch=0;html=1;fillColor=#5184F3;strokeColor=none;verticalAlign=top;labelPosition=center;verticalLabelPosition=bottom;align=center;spacingTop=-6;fontSize=11;fontStyle=1;fontColor=#999999;shape=mxgraph.gcp2.hexIcon;prIcon=cloud_bigtable" vertex="1" parent="1">
          <mxGeometry x="832" y="710" width="66" height="59" as="geometry" />
        </mxCell>
        <mxCell id="PhpXdE0GWQOgbOGKaO0m-442" value="文件" style="sketch=0;html=1;fillColor=#5184F3;strokeColor=none;verticalAlign=top;labelPosition=center;verticalLabelPosition=bottom;align=center;spacingTop=-6;fontSize=11;fontStyle=1;fontColor=#999999;shape=mxgraph.gcp2.hexIcon;prIcon=cloud_bigtable" vertex="1" parent="1">
          <mxGeometry x="906" y="710" width="66" height="59" as="geometry" />
        </mxCell>
        <mxCell id="PhpXdE0GWQOgbOGKaO0m-443" value="其他" style="sketch=0;html=1;fillColor=#5184F3;strokeColor=none;verticalAlign=top;labelPosition=center;verticalLabelPosition=bottom;align=center;spacingTop=-6;fontSize=11;fontStyle=1;fontColor=#999999;shape=mxgraph.gcp2.hexIcon;prIcon=cloud_bigtable" vertex="1" parent="1">
          <mxGeometry x="972" y="710" width="66" height="59" as="geometry" />
        </mxCell>
        <mxCell id="PhpXdE0GWQOgbOGKaO0m-466" value="" style="edgeStyle=orthogonalEdgeStyle;rounded=0;orthogonalLoop=1;jettySize=auto;html=1;fontSize=14;endArrow=blockThin;endFill=1;startSize=4;endSize=4;strokeColor=#4284F3;strokeWidth=2;" edge="1" parent="1" source="PhpXdE0GWQOgbOGKaO0m-445" target="PhpXdE0GWQOgbOGKaO0m-465">
          <mxGeometry relative="1" as="geometry" />
        </mxCell>
        <mxCell id="PhpXdE0GWQOgbOGKaO0m-445" value="colo / dc /&#xa;on-premises" style="sketch=0;points=[[0,0,0],[0.25,0,0],[0.5,0,0],[0.75,0,0],[1,0,0],[1,0.25,0],[1,0.5,0],[1,0.75,0],[1,1,0],[0.75,1,0],[0.5,1,0],[0.25,1,0],[0,1,0],[0,0.75,0],[0,0.5,0],[0,0.25,0]];rounded=1;absoluteArcSize=1;arcSize=2;html=1;strokeColor=none;gradientColor=none;shadow=0;dashed=0;fontSize=12;fontColor=#9E9E9E;align=left;verticalAlign=top;spacing=10;spacingTop=-4;fillColor=#EFEBE9;" vertex="1" parent="1">
          <mxGeometry x="80" y="525" width="980" height="140" as="geometry" />
        </mxCell>
        <mxCell id="PhpXdE0GWQOgbOGKaO0m-457" style="edgeStyle=orthogonalEdgeStyle;rounded=0;orthogonalLoop=1;jettySize=auto;html=1;entryX=0;entryY=0.5;entryDx=0;entryDy=0;fontSize=14;endArrow=blockThin;endFill=1;startSize=4;endSize=4;strokeColor=#4284F3;strokeWidth=2;" edge="1" parent="1" source="PhpXdE0GWQOgbOGKaO0m-446" target="PhpXdE0GWQOgbOGKaO0m-452">
          <mxGeometry relative="1" as="geometry" />
        </mxCell>
        <mxCell id="PhpXdE0GWQOgbOGKaO0m-446" value="" style="strokeColor=#dddddd;fillColor=#ffffff;shadow=1;strokeWidth=1;rounded=1;absoluteArcSize=1;arcSize=2;fontSize=17;fontColor=#000000;align=right;html=1;" vertex="1" parent="1">
          <mxGeometry x="620" y="545" width="120" height="40" as="geometry" />
        </mxCell>
        <mxCell id="PhpXdE0GWQOgbOGKaO0m-447" value="ATTA" style="dashed=0;connectable=0;html=1;fillColor=#5184F3;strokeColor=none;shape=mxgraph.gcp2.hexIcon;prIcon=cloud_storage;part=1;labelPosition=right;verticalLabelPosition=middle;align=left;verticalAlign=middle;spacingLeft=5;fontColor=#999999;fontSize=12;" vertex="1" parent="PhpXdE0GWQOgbOGKaO0m-446">
          <mxGeometry y="0.5" width="44" height="39" relative="1" as="geometry">
            <mxPoint x="5" y="-19.5" as="offset" />
          </mxGeometry>
        </mxCell>
        <mxCell id="PhpXdE0GWQOgbOGKaO0m-456" style="edgeStyle=orthogonalEdgeStyle;rounded=0;orthogonalLoop=1;jettySize=auto;html=1;fontSize=14;strokeColor=#4284F3;strokeWidth=2;endSize=4;startSize=4;endArrow=blockThin;endFill=1;" edge="1" parent="1" source="PhpXdE0GWQOgbOGKaO0m-448" target="PhpXdE0GWQOgbOGKaO0m-452">
          <mxGeometry relative="1" as="geometry" />
        </mxCell>
        <mxCell id="PhpXdE0GWQOgbOGKaO0m-448" value="" style="strokeColor=#dddddd;fillColor=#ffffff;shadow=1;strokeWidth=1;rounded=1;absoluteArcSize=1;arcSize=2;fontSize=17;fontColor=#000000;align=right;html=1;" vertex="1" parent="1">
          <mxGeometry x="620" y="605" width="120" height="40" as="geometry" />
        </mxCell>
        <mxCell id="PhpXdE0GWQOgbOGKaO0m-449" value="TDBBANK" style="dashed=0;connectable=0;html=1;fillColor=#5184F3;strokeColor=none;shape=mxgraph.gcp2.hexIcon;prIcon=cloud_storage;part=1;labelPosition=right;verticalLabelPosition=middle;align=left;verticalAlign=middle;spacingLeft=5;fontColor=#999999;fontSize=12;" vertex="1" parent="PhpXdE0GWQOgbOGKaO0m-448">
          <mxGeometry y="0.5" width="44" height="39" relative="1" as="geometry">
            <mxPoint x="5" y="-19.5" as="offset" />
          </mxGeometry>
        </mxCell>
        <mxCell id="PhpXdE0GWQOgbOGKaO0m-450" value="" style="strokeColor=#dddddd;shadow=1;strokeWidth=1;rounded=1;absoluteArcSize=1;arcSize=2;fontSize=14;" vertex="1" parent="1">
          <mxGeometry x="790" y="535" width="90" height="40" as="geometry" />
        </mxCell>
        <mxCell id="PhpXdE0GWQOgbOGKaO0m-451" value="TDW" style="sketch=0;dashed=0;connectable=0;html=1;fillColor=#5184F3;strokeColor=none;shape=mxgraph.gcp2.hexIcon;prIcon=cloud_datastore;part=1;labelPosition=right;verticalLabelPosition=middle;align=left;verticalAlign=middle;spacingLeft=5;fontColor=#999999;fontSize=12;" vertex="1" parent="PhpXdE0GWQOgbOGKaO0m-450">
          <mxGeometry y="0.5" width="44" height="39" relative="1" as="geometry">
            <mxPoint x="5" y="-19.5" as="offset" />
          </mxGeometry>
        </mxCell>
        <mxCell id="PhpXdE0GWQOgbOGKaO0m-452" value="" style="strokeColor=#dddddd;shadow=1;strokeWidth=1;rounded=1;absoluteArcSize=1;arcSize=2;fontSize=14;" vertex="1" parent="1">
          <mxGeometry x="790" y="575" width="90" height="40" as="geometry" />
        </mxCell>
        <mxCell id="PhpXdE0GWQOgbOGKaO0m-453" value="VENUS" style="sketch=0;dashed=0;connectable=0;html=1;fillColor=#5184F3;strokeColor=none;shape=mxgraph.gcp2.hexIcon;prIcon=cloud_datastore;part=1;labelPosition=right;verticalLabelPosition=middle;align=left;verticalAlign=middle;spacingLeft=5;fontColor=#999999;fontSize=12;" vertex="1" parent="PhpXdE0GWQOgbOGKaO0m-452">
          <mxGeometry y="0.5" width="44" height="39" relative="1" as="geometry">
            <mxPoint x="5" y="-19.5" as="offset" />
          </mxGeometry>
        </mxCell>
        <mxCell id="PhpXdE0GWQOgbOGKaO0m-454" value="" style="strokeColor=#dddddd;shadow=1;strokeWidth=1;rounded=1;absoluteArcSize=1;arcSize=2;fontSize=14;" vertex="1" parent="1">
          <mxGeometry x="790" y="615" width="90" height="40" as="geometry" />
        </mxCell>
        <mxCell id="PhpXdE0GWQOgbOGKaO0m-455" value="HDFS" style="sketch=0;dashed=0;connectable=0;html=1;fillColor=#5184F3;strokeColor=none;shape=mxgraph.gcp2.hexIcon;prIcon=cloud_datastore;part=1;labelPosition=right;verticalLabelPosition=middle;align=left;verticalAlign=middle;spacingLeft=5;fontColor=#999999;fontSize=12;" vertex="1" parent="PhpXdE0GWQOgbOGKaO0m-454">
          <mxGeometry y="0.5" width="44" height="39" relative="1" as="geometry">
            <mxPoint x="5" y="-19.5" as="offset" />
          </mxGeometry>
        </mxCell>
        <mxCell id="PhpXdE0GWQOgbOGKaO0m-460" value="" style="strokeColor=#dddddd;fillColor=#ffffff;shadow=1;strokeWidth=1;rounded=1;absoluteArcSize=1;arcSize=2;fontSize=17;fontColor=#000000;align=right;html=1;" vertex="1" parent="1">
          <mxGeometry x="360" y="565" width="120" height="40" as="geometry" />
        </mxCell>
        <mxCell id="PhpXdE0GWQOgbOGKaO0m-461" value="灯塔日志&lt;br&gt;接收服务" style="dashed=0;connectable=0;html=1;fillColor=#5184F3;strokeColor=none;shape=mxgraph.gcp2.hexIcon;prIcon=cloud_storage;part=1;labelPosition=right;verticalLabelPosition=middle;align=left;verticalAlign=middle;spacingLeft=5;fontColor=#999999;fontSize=12;" vertex="1" parent="PhpXdE0GWQOgbOGKaO0m-460">
          <mxGeometry y="0.5" width="44" height="39" relative="1" as="geometry">
            <mxPoint x="5" y="-19.5" as="offset" />
          </mxGeometry>
        </mxCell>
        <mxCell id="PhpXdE0GWQOgbOGKaO0m-464" value="" style="edgeStyle=orthogonalEdgeStyle;rounded=0;orthogonalLoop=1;jettySize=auto;html=1;fontSize=14;endArrow=blockThin;endFill=1;startSize=4;endSize=4;strokeColor=#4284F3;strokeWidth=2;" edge="1" parent="1" source="PhpXdE0GWQOgbOGKaO0m-462" target="PhpXdE0GWQOgbOGKaO0m-460">
          <mxGeometry relative="1" as="geometry" />
        </mxCell>
        <mxCell id="PhpXdE0GWQOgbOGKaO0m-462" value="" style="strokeColor=#dddddd;fillColor=#ffffff;shadow=1;strokeWidth=1;rounded=1;absoluteArcSize=1;arcSize=2;fontSize=17;fontColor=#000000;align=right;html=1;" vertex="1" parent="1">
          <mxGeometry x="160" y="565" width="120" height="40" as="geometry" />
        </mxCell>
        <mxCell id="PhpXdE0GWQOgbOGKaO0m-463" value="灯塔上报&lt;br&gt;SDK" style="dashed=0;connectable=0;html=1;fillColor=#5184F3;strokeColor=none;shape=mxgraph.gcp2.hexIcon;prIcon=cloud_storage;part=1;labelPosition=right;verticalLabelPosition=middle;align=left;verticalAlign=middle;spacingLeft=5;fontColor=#999999;fontSize=12;" vertex="1" parent="PhpXdE0GWQOgbOGKaO0m-462">
          <mxGeometry y="0.5" width="44" height="39" relative="1" as="geometry">
            <mxPoint x="5" y="-19.5" as="offset" />
          </mxGeometry>
        </mxCell>
        <mxCell id="PhpXdE0GWQOgbOGKaO0m-465" value="colo / dc /&#xa;on-premises" style="sketch=0;points=[[0,0,0],[0.25,0,0],[0.5,0,0],[0.75,0,0],[1,0,0],[1,0.25,0],[1,0.5,0],[1,0.75,0],[1,1,0],[0.75,1,0],[0.5,1,0],[0.25,1,0],[0,1,0],[0,0.75,0],[0,0.5,0],[0,0.25,0]];rounded=1;absoluteArcSize=1;arcSize=2;html=1;strokeColor=none;gradientColor=none;shadow=0;dashed=0;fontSize=12;fontColor=#9E9E9E;align=left;verticalAlign=top;spacing=10;spacingTop=-4;fillColor=#EFEBE9;" vertex="1" parent="1">
          <mxGeometry x="80" y="344" width="980" height="140" as="geometry" />
        </mxCell>
        <mxCell id="PhpXdE0GWQOgbOGKaO0m-467" value="" style="strokeColor=#dddddd;shadow=1;strokeWidth=1;rounded=1;absoluteArcSize=1;arcSize=2;fontSize=14;" vertex="1" parent="1">
          <mxGeometry x="395" y="390" width="110" height="60" as="geometry" />
        </mxCell>
        <mxCell id="PhpXdE0GWQOgbOGKaO0m-468" value="统计特征&lt;br&gt;时序特征&lt;br&gt;抽象特征" style="sketch=0;dashed=0;connectable=0;html=1;fillColor=#5184F3;strokeColor=none;shape=mxgraph.gcp2.hexIcon;prIcon=compute_engine;part=1;labelPosition=right;verticalLabelPosition=middle;align=left;verticalAlign=middle;spacingLeft=5;fontColor=#999999;fontSize=12;" vertex="1" parent="PhpXdE0GWQOgbOGKaO0m-467">
          <mxGeometry y="0.5" width="44" height="39" relative="1" as="geometry">
            <mxPoint x="5" y="-19.5" as="offset" />
          </mxGeometry>
        </mxCell>
      </root>
    </mxGraphModel>
  </diagram>
</mxfile>
